<?xml version="1.0" encoding="UTF-8"?>
<svg width="326px" height="206px" viewBox="0 0 326 206" version="1.1" xmlns="http://www.w3.org/2000/svg" xmlns:xlink="http://www.w3.org/1999/xlink">
    <title>Mastercards</title>
    <defs>
        <rect id="path-1" x="0" y="0" width="239.536585" height="149.879996" rx="12"></rect>
        <filter x="-1.5%" y="-1.7%" width="102.9%" height="104.7%" filterUnits="objectBoundingBox" id="filter-2">
            <feOffset dx="0" dy="1" in="SourceAlpha" result="shadowOffsetOuter1"></feOffset>
            <feGaussianBlur stdDeviation="1" in="shadowOffsetOuter1" result="shadowBlurOuter1"></feGaussianBlur>
            <feColorMatrix values="0 0 0 0 0   0 0 0 0 0   0 0 0 0 0  0 0 0 0.35 0" type="matrix" in="shadowBlurOuter1"></feColorMatrix>
        </filter>
        <rect id="path-3" x="0" y="0" width="239.536585" height="149.879996" rx="12"></rect>
        <filter x="-6.6%" y="-10.4%" width="113.2%" height="120.8%" filterUnits="objectBoundingBox" id="filter-5">
            <feOffset dx="0" dy="0" in="SourceAlpha" result="shadowOffsetOuter1"></feOffset>
            <feGaussianBlur stdDeviation="0.5" in="shadowOffsetOuter1" result="shadowBlurOuter1"></feGaussianBlur>
            <feColorMatrix values="0 0 0 0 1   0 0 0 0 1   0 0 0 0 1  0 0 0 1 0" type="matrix" in="shadowBlurOuter1" result="shadowMatrixOuter1"></feColorMatrix>
            <feMerge>
                <feMergeNode in="shadowMatrixOuter1"></feMergeNode>
                <feMergeNode in="SourceGraphic"></feMergeNode>
            </feMerge>
        </filter>
        <rect id="path-6" x="0" y="0" width="239.536585" height="149.879996" rx="12"></rect>
        <filter x="-1.5%" y="-1.7%" width="102.9%" height="104.7%" filterUnits="objectBoundingBox" id="filter-7">
            <feOffset dx="0" dy="1" in="SourceAlpha" result="shadowOffsetOuter1"></feOffset>
            <feGaussianBlur stdDeviation="1" in="shadowOffsetOuter1" result="shadowBlurOuter1"></feGaussianBlur>
            <feColorMatrix values="0 0 0 0 0   0 0 0 0 0   0 0 0 0 0  0 0 0 0.35 0" type="matrix" in="shadowBlurOuter1"></feColorMatrix>
        </filter>
        <rect id="path-8" x="0" y="0" width="239.536585" height="149.879996" rx="12"></rect>
        <filter x="-6.6%" y="-10.4%" width="113.2%" height="120.8%" filterUnits="objectBoundingBox" id="filter-10">
            <feOffset dx="0" dy="0" in="SourceAlpha" result="shadowOffsetOuter1"></feOffset>
            <feGaussianBlur stdDeviation="0.5" in="shadowOffsetOuter1" result="shadowBlurOuter1"></feGaussianBlur>
            <feColorMatrix values="0 0 0 0 1   0 0 0 0 1   0 0 0 0 1  0 0 0 1 0" type="matrix" in="shadowBlurOuter1" result="shadowMatrixOuter1"></feColorMatrix>
            <feMerge>
                <feMergeNode in="shadowMatrixOuter1"></feMergeNode>
                <feMergeNode in="SourceGraphic"></feMergeNode>
            </feMerge>
        </filter>
    </defs>
    <g id="MVP-Desktop" stroke="none" stroke-width="1" fill="none" fill-rule="evenodd">
        <g id="Desk.TDC-303.b2" transform="translate(-735.000000, -311.000000)">
            <g id="Mastercards" transform="translate(737.000000, 312.000000)">
                <g id="Desk.Internacional-Copy">
                    <g id="tarjeta-diseño">
                        <g id="Color-Tarjeta">
                            <use fill="black" fill-opacity="1" filter="url(#filter-2)" xlink:href="#path-1"></use>
                            <use fill="#B68A09" fill-rule="evenodd" xlink:href="#path-1"></use>
                        </g>
                        <g id="curva">
                            <mask id="mask-4" fill="white">
                                <use xlink:href="#path-3"></use>
                            </mask>
                            <g id="Mask"></g>
                            <path d="M239.930067,20.686747 C140.302376,20.686747 59.5365854,78.4870362 59.5365854,149.788066" id="Stroke-4" stroke-opacity="0.0977253947" stroke="#FFFFFF" stroke-width="74.778" mask="url(#mask-4)"></path>
                        </g>
                    </g>
                    <text id="nombre-tarjeta" font-family="Ubuntu-Regular, Ubuntu" font-size="14" font-weight="normal" line-spacing="20" fill="#FFFFFF">
                        <tspan x="51" y="31">Dorada</tspan>
                    </text>
                    <text id="nombre-tarjeta" font-family="Ubuntu-Regular, Ubuntu" font-size="14" font-weight="normal" line-spacing="20" fill="#FFFFFF">
                        <tspan class="nombreSocio" x="16" y="123.879996"></tspan>
                    </text>
                    <g id="Group-18" transform="translate(16.000000, 16.000000)" fill="#FEFEFE">
                        <path d="M26.453831,12.1503929 C18.6941568,12.4317512 12.4329464,18.6929281 12.1503134,26.4538339 C12.1401285,26.7517427 12.3794753,27 12.6773856,27 L23.8528442,27 C25.5906547,27 27,25.5906623 27,23.8515879 L27,12.6774623 C27,12.3795535 26.7517414,12.1389349 26.453831,12.1503929" id="Fill-43"></path>
                        <path d="M23.8604946,0 L10.0063005,0 C4.48011096,0 0,4.48011096 0,10.0063005 L0,23.8604946 C0,25.5946492 1.40535076,27 3.13950536,27 L5.01076735,27 C5.29513824,27 5.52492007,26.7702182 5.52618958,26.4871168 C5.79532631,15.0475362 15.0513447,5.79278729 26.4921948,5.52618958 C26.7727572,5.52238104 27,5.29386872 27,5.01076735 L27,3.13950536 C27,1.40535076 25.5946492,0 23.8604946,0" id="Fill-44"></path>
                    </g>
                    <g id="Group" transform="translate(185.536585, 103.879996)" fill-rule="nonzero">
                        <path d="M7.19615426,29.8056871 L7.19615426,27.5418897 C7.21945934,27.15671 7.09780573,26.7786075 6.86226114,26.5041415 C6.62671656,26.2296754 6.30008536,26.0854184 5.96578213,26.1082105 C5.52531532,26.0751142 5.10409065,26.3208285 4.86628882,26.7495814 C4.64951006,26.3335479 4.25278013,26.0874804 3.83221856,26.1082105 C3.46604163,26.0869911 3.1174737,26.2908068 2.91596868,26.6439629 L2.91596868,26.198773 L2.23529412,26.198773 L2.23529412,29.8056871 L2.92248153,29.8056871 L2.92248153,27.8059925 C2.89239495,27.5561463 2.96085397,27.3038861 3.10908984,27.1183718 C3.25732571,26.9328575 3.46978357,26.8335556 3.68821586,26.8476907 C4.13979522,26.8476907 4.36889042,27.1872622 4.36889042,27.7984456 L4.36889042,29.8056871 L5.05607783,29.8056871 L5.05607783,27.8059925 C5.02826247,27.5566777 5.09750625,27.3059441 5.24522858,27.1210724 C5.39295091,26.9362008 5.60402503,26.836122 5.82181217,26.8476907 C6.28645323,26.8476907 6.50896685,27.1872622 6.50896685,27.7984456 L6.50896685,29.8056871 L7.19615426,29.8056871 Z M17.3666065,26.198773 L16.254022,26.198773 L16.254022,25.1046275 L15.5668346,25.1046275 L15.5668346,26.198773 L14.9319791,26.198773 L14.9319791,26.9156126 L15.5668346,26.9156126 L15.5668346,28.5606042 C15.5668346,29.398156 15.8482617,29.8962578 16.6532367,29.8962578 C16.9539693,29.8972907 17.2488579,29.800507 17.5040309,29.6170153 L17.307729,28.9454192 C17.1252013,29.0709743 16.918029,29.1410833 16.7056014,29.1491847 C16.3652641,29.1491847 16.254022,28.9076471 16.254022,28.5455482 L16.254022,26.9156126 L17.3666065,26.9156126 L17.3666065,26.198773 Z M23.1717511,26.1082105 C22.8336893,26.0967163 22.5172674,26.2993997 22.3471361,26.636416 L22.3471361,26.198773 L21.6730071,26.198773 L21.6730071,29.8056871 L22.3536489,29.8056871 L22.3536489,27.7833519 C22.3536489,27.1872622 22.5761658,26.8552376 23.021265,26.8552376 C23.1668345,26.8529396 23.3113718,26.8837124 23.4466294,26.9458001 L23.6560551,26.2062821 C23.5006146,26.1421521 23.3368422,26.1089882 23.1717511,26.1082105 L23.1717511,26.1082105 Z M14.3953399,26.4854786 C14.0100641,26.2213527 13.5670867,26.0904029 13.119116,26.1082105 C12.3271994,26.1082105 11.8167426,26.5458536 11.8167426,27.2626932 C11.8167426,27.8513114 12.1963206,28.2135236 12.8965664,28.3266889 L13.217267,28.3794793 C13.5902994,28.4397788 13.76703,28.5530196 13.76703,28.7567474 C13.76703,29.0359439 13.5182981,29.1944659 13.0536603,29.1944659 C12.6798933,29.2068607 12.3133724,29.0739545 12.0130444,28.8171224 L11.6923766,29.4283435 C12.0888307,29.7475907 12.5637239,29.9116117 13.0471147,29.8962495 C13.9502734,29.8962495 14.4738214,29.4057029 14.4738214,28.7190508 C14.4738214,28.085189 14.0615482,27.7531644 13.3809064,27.6399613 L13.0602386,27.5871332 C12.7656876,27.5418897 12.5301123,27.4740433 12.5301123,27.2325812 C12.5301123,26.9684407 12.7525637,26.8099564 13.1256616,26.8099564 C13.4682293,26.8159208 13.8038336,26.9223963 14.1008217,27.1193404 L14.3953399,26.4854786 Z M32.6288009,26.1082105 C32.2907391,26.0967163 31.9743171,26.2993997 31.8041858,26.636416 L31.8041858,26.198773 L31.1300896,26.198773 L31.1300896,29.8056871 L31.8106987,29.8056871 L31.8106987,27.7833519 C31.8106987,27.1872622 32.0332483,26.8552376 32.4782526,26.8552376 C32.6238546,26.8529305 32.7684256,26.8837033 32.9037151,26.9458001 L33.1131376,26.2062821 C32.9576858,26.1421519 32.7939026,26.108988 32.6288009,26.1082105 L32.6288009,26.1082105 Z M23.8589025,28.0021357 C23.8406195,28.5159764 24.0114929,29.0148033 24.3293719,29.3755666 C24.6472508,29.73633 25.0825393,29.9254408 25.5278611,29.8962495 C25.9364963,29.9199159 26.3380275,29.7664682 26.6535039,29.4660778 L26.3262906,28.8322161 C26.0909705,29.039036 25.8040687,29.1528286 25.5081949,29.1566938 C24.9787362,29.1196436 24.5658,28.613767 24.5658,28.0021923 C24.5658,27.3906176 24.9787362,26.884741 25.5081949,26.8476907 C25.8040747,26.851552 26.0909808,26.9653596 26.3262906,27.1722062 L26.6535039,26.5383067 C26.3380049,26.2379708 25.9364841,26.084554 25.5278611,26.1082105 C25.0825654,26.0790079 24.6472965,26.2680886 24.3294201,26.6288131 C24.0115436,26.9895376 23.8406536,27.4883227 23.8589025,28.0021357 Z M30.233447,28.0021357 L30.233447,26.198773 L29.5528019,26.198773 L29.5528019,26.636416 C29.3170589,26.2861482 28.9487341,26.089284 28.5645506,26.1082105 C27.6885705,26.157732 27.0003964,26.9910355 27.0003964,28.00223 C27.0003964,29.0134245 27.6885705,29.8467281 28.5645506,29.8962495 C28.9487443,29.9151499 29.3170682,29.7182581 29.5528019,29.3679685 L29.5528019,29.8056871 L30.233447,29.8056871 L30.233447,28.0021357 Z M27.7006359,28.0021357 C27.7300963,27.4085237 28.1659924,26.9511444 28.6813363,26.9731016 C29.1966803,26.9950588 29.6021086,27.4882842 29.5934888,28.0827842 C29.584869,28.6772841 29.1653684,29.1546094 28.6496759,29.1566938 C28.387654,29.1607819 28.1360837,29.0383725 27.9558262,28.8190795 C27.7755687,28.5997866 27.6830439,28.3035857 27.7006359,28.0021357 L27.7006359,28.0021357 Z M19.4871116,26.1082105 C18.605032,26.1617509 17.9172736,27.0093193 17.929591,28.0276424 C17.9419083,29.0459654 18.6498991,29.871091 19.5329307,29.8962495 C19.9998711,29.915145 20.4564985,29.7351481 20.8156707,29.3906091 L20.4818757,28.8096132 C20.2234266,29.0484278 19.903342,29.1811717 19.5721714,29.1868813 C19.1046123,29.2322303 18.6902926,28.8413641 18.6362848,28.3039728 L20.9596734,28.3039728 C20.9662189,28.2059389 20.9727285,28.1078296 20.9727285,28.0021357 C20.9662189,26.8778782 20.364088,26.1082105 19.4871116,26.1082105 L19.4871116,26.1082105 Z M19.4739877,26.8099564 C19.902037,26.800354 20.2561699,27.1917854 20.2659044,27.6852803 L18.6428304,27.6852803 C18.6676853,27.1816482 19.0367164,26.7930073 19.4739877,26.8099564 L19.4739877,26.8099564 Z M36.5490746,28.0021357 L36.5490746,24.75 L35.8684001,24.75 L35.8684001,26.636416 C35.6326661,26.2861562 35.2643544,26.0892926 34.8801816,26.1082105 C34.0041757,26.1576923 33.3159637,26.9910078 33.3159637,28.00223 C33.3159637,29.0134523 34.0041757,29.8467677 34.8801816,29.8962495 C35.2643646,29.9151413 35.6326753,29.71825 35.8684001,29.3679685 L35.8684001,29.8056871 L36.5490746,29.8056871 L36.5490746,28.0021357 Z M37.683685,29.282953 C37.7259554,29.2826291 37.7678426,29.2922059 37.8068073,29.3111028 C37.8442743,29.3291202 37.878419,29.3552075 37.9074128,29.3879677 C37.93618,29.4206489 37.9591956,29.4594346 37.9751923,29.5021896 C38.0082692,29.5909811 38.0082692,29.6915381 37.9751923,29.7803296 C37.9590998,29.82289 37.936093,29.8615074 37.9074128,29.8940987 C37.8783404,29.9268519 37.8442209,29.9530607 37.8068073,29.9713786 C37.7679116,29.9905823 37.7259958,30.0003198 37.683685,29.9999813 C37.5563814,30.0014621 37.4406731,29.9149458 37.3899195,29.7803296 C37.356934,29.6915164 37.356934,29.5910028 37.3899195,29.5021896 C37.4058711,29.4594895 37.4287802,29.4207147 37.4574044,29.3879677 C37.4863647,29.3549638 37.5206705,29.3288468 37.5583699,29.3111028 C37.5980874,29.2921474 37.6407005,29.2825751 37.683685,29.282953 L37.683685,29.282953 Z M37.683685,29.9208901 C37.7159365,29.9211827 37.7478852,29.9137024 37.7774831,29.8989287 C37.8058975,29.8846921 37.8317333,29.8644152 37.8536409,29.8391575 C37.9476945,29.7296412 37.9476945,29.5532176 37.8536409,29.4437014 C37.8317744,29.4185202 37.8059213,29.3984091 37.7774831,29.3844584 C37.7478319,29.3699268 37.7159025,29.3625923 37.683685,29.3629121 C37.6508784,29.3626269 37.6183573,29.3699544 37.5880574,29.3844584 C37.559165,29.3981837 37.532889,29.4183115 37.5107181,29.4437014 C37.4166182,29.5531957 37.4166182,29.7296631 37.5107181,29.8391575 C37.5329285,29.864624 37.559187,29.8849177 37.5880574,29.8989287 C37.6183052,29.9136747 37.6508451,29.9211477 37.683685,29.9208901 L37.683685,29.9208901 Z M37.7019799,29.473587 C37.7325916,29.471292 37.7629358,29.48141 37.7877597,29.5021896 C37.8078126,29.5212368 37.8189487,29.5500317 37.8178366,29.5799601 C37.8185369,29.6055279 37.809822,29.6302437 37.793847,29.6479952 C37.774897,29.6673987 37.7508955,29.6789988 37.7256094,29.680975 L37.8201275,29.8066304 L37.746228,29.8066304 L37.6585827,29.6818429 L37.6303713,29.6818429 L37.6303713,29.8066304 L37.5686465,29.8066304 L37.5686465,29.473587 L37.7019799,29.473587 Z M37.6303713,29.5360373 L37.6303713,29.6247886 L37.7012599,29.6247886 C37.7148787,29.6255629 37.7283958,29.6217191 37.7401406,29.6137324 C37.7498478,29.6062651 37.7553524,29.5933847 37.7545736,29.5799601 C37.7552177,29.5667733 37.7497172,29.5541902 37.7401406,29.5469426 C37.7283694,29.5390442 37.7148625,29.5352558 37.7012599,29.5360373 L37.6303713,29.5360373 Z M34.0162963,28.0021357 C34.0457815,27.4085549 34.4816757,26.9512238 34.9969931,26.9732091 C35.5123104,26.9951944 35.9176979,27.4884176 35.9090541,28.0828875 C35.9004104,28.6773575 35.4809116,29.1546365 34.9652446,29.1566938 C34.7032353,29.1607648 34.4516828,29.0383462 34.2714432,28.8190538 C34.0912035,28.5997614 33.9986946,28.3035704 34.0162963,28.0021357 L34.0162963,28.0021357 Z M11.0313715,28.0021357 L11.0313715,26.198773 L10.3506969,26.198773 L10.3506969,26.636416 C10.114954,26.2861482 9.74662921,26.089284 9.36244572,26.1082105 C8.48646561,26.157732 7.79829144,26.9910355 7.79829144,28.00223 C7.79829144,29.0134245 8.48646561,29.8467281 9.36244572,29.8962495 C9.74663939,29.9151499 10.1149633,29.7182581 10.3506969,29.3679685 L10.3506969,29.8056871 L11.0313715,29.8056871 L11.0313715,28.0021357 Z M8.49859318,28.0021357 C8.52807837,27.4085544 8.96397326,26.9512231 9.47929102,26.9732091 C9.99460878,26.9951951 10.3999959,27.4884196 10.391351,28.08289 C10.382706,28.6773605 9.9632056,29.1546385 9.44753822,29.1566938 C9.18552942,29.1607637 8.93397782,29.0383447 8.7537389,28.8190524 C8.57349999,28.5997601 8.48099152,28.3035697 8.49859318,28.0021357 L8.49859318,28.0021357 Z" id="Shape" fill="#FFFFFF"></path>
                        <g filter="url(#filter-5)">
                            <rect id="Rectangle" fill="#FF5F00" x="13.8242837" y="2.56574757" width="10.2469844" height="18.8685049"></rect>
                            <path d="M14.4749509,12 C14.4716716,8.31799369 16.1210949,4.83899527 18.9478116,2.56574757 C14.1464138,-1.30139317 7.2508901,-0.738545261 3.10752433,3.85871284 C-1.03584144,8.45597094 -1.03584144,15.5440291 3.10752433,20.1412872 C7.2508901,24.7385453 14.1464138,25.3013932 18.9478116,21.4342524 C16.1211139,19.160989 14.4716955,15.6820007 14.4749509,12 Z" id="Path" fill="#EB001B"></path>
                            <path d="M37.8950355,12 C37.8950355,16.5941461 35.3354197,20.7851212 31.3028089,22.7930496 C27.270198,24.800978 22.4727137,24.2733528 18.9478116,21.4342524 C21.7718868,19.1588263 23.4206332,15.681225 23.4206332,12 C23.4206332,8.31877498 21.7718868,4.84117373 18.9478116,2.56574757 C22.4727137,-0.273352786 27.270198,-0.800978018 31.3028089,1.20695037 C35.3354197,3.21487877 37.8950355,7.40585394 37.8950355,12 L37.8950355,12 Z" id="Path" fill="#F79E1B"></path>
                            <path d="M36.8898042,20.4509774 L36.8898042,19.2224756 L37.114342,19.2224756 L37.114342,18.9721958 L36.5424986,18.9721958 L36.5424986,19.2224756 L36.7671325,19.2224756 L36.7671325,20.4509774 L36.8898042,20.4509774 Z M38,20.4509774 L38,18.9697576 L37.8247135,18.9697576 L37.6230956,19.9885799 L37.4214297,18.9697576 L37.2460471,18.9697576 L37.2460471,20.4509774 L37.3698239,20.4509774 L37.3698239,19.3336757 L37.5589008,20.2969509 L37.6872424,20.2969509 L37.8763192,19.3312376 L37.8763192,20.4509774 L38,20.4509774 Z" id="Shape" fill="#F79E1B"></path>
                        </g>
                    </g>
                </g>
                <g id="Desk.Internacional" transform="translate(82.463415, 52.120004)">
                    <g id="tarjeta-diseño">
                        <g id="Color-Tarjeta">
                            <use fill="black" fill-opacity="1" filter="url(#filter-7)" xlink:href="#path-6"></use>
                            <use fill="#383638" fill-rule="evenodd" xlink:href="#path-6"></use>
                        </g>
                        <g id="curva">
                            <mask id="mask-9" fill="white">
                                <use xlink:href="#path-8"></use>
                            </mask>
                            <g id="Mask"></g>
                            <path d="M239.831127,15.3491563 C165.254636,15.3491563 104.797256,75.5497718 104.797256,149.811786" id="Stroke-4" stroke-opacity="0.05" stroke="#FFFFFF" stroke-width="74.778" mask="url(#mask-9)"></path>
                        </g>
                    </g>
                    <text id="nombre-tarjeta" font-family="Ubuntu-Regular, Ubuntu" font-size="14" font-weight="normal" line-spacing="20" fill="#FFFFFF">
                        <tspan x="51.0633951" y="31.4595839">Internacional</tspan>
                    </text>
                    <text id="nombre-tarjeta" font-family="Ubuntu-Regular, Ubuntu" font-size="14" font-weight="normal" line-spacing="20" fill="#FFFFFF">
                        <tspan class="nombreSocio" x="16" y="123.879996">David Flores M.</tspan>
                    </text>
                    <g id="Group-18" transform="translate(16.000000, 16.000000)" fill="#FEFEFE">
                        <path d="M26.5159437,12.187675 C18.7380501,12.4698966 12.4621385,18.7502852 12.178842,26.5350043 C12.1686331,26.8338272 12.4085419,27.0828463 12.7071517,27.0828463 L23.9088499,27.0828463 C25.6507408,27.0828463 27.0633951,25.6691842 27.0633951,23.9247737 L27.0633951,12.7163616 C27.0633951,12.4175387 26.8145536,12.1761818 26.5159437,12.187675" id="Fill-43"></path>
                        <path d="M23.9165183,0 L10.029795,0 C4.49063012,0 0,4.49385765 0,10.0370037 L0,23.9337077 C0,25.6731834 1.40865048,27.0828463 3.14687682,27.0828463 L5.02253247,27.0828463 C5.30757105,27.0828463 5.5378924,26.8523594 5.5391649,26.5683894 C5.80893355,15.0937078 15.0866848,5.81056177 26.5543977,5.54314604 C26.8356188,5.53932581 27.0633951,5.31011233 27.0633951,5.02614229 L27.0633951,3.14913856 C27.0633951,1.40966291 25.6547447,0 23.9165183,0" id="Fill-44"></path>
                    </g>
                    <g id="Group" transform="translate(187.536585, 103.879996)" fill-rule="nonzero">
                        <path d="M7.19615426,29.8056871 L7.19615426,27.5418897 C7.21945934,27.15671 7.09780573,26.7786075 6.86226114,26.5041415 C6.62671656,26.2296754 6.30008536,26.0854184 5.96578213,26.1082105 C5.52531532,26.0751142 5.10409065,26.3208285 4.86628882,26.7495814 C4.64951006,26.3335479 4.25278013,26.0874804 3.83221856,26.1082105 C3.46604163,26.0869911 3.1174737,26.2908068 2.91596868,26.6439629 L2.91596868,26.198773 L2.23529412,26.198773 L2.23529412,29.8056871 L2.92248153,29.8056871 L2.92248153,27.8059925 C2.89239495,27.5561463 2.96085397,27.3038861 3.10908984,27.1183718 C3.25732571,26.9328575 3.46978357,26.8335556 3.68821586,26.8476907 C4.13979522,26.8476907 4.36889042,27.1872622 4.36889042,27.7984456 L4.36889042,29.8056871 L5.05607783,29.8056871 L5.05607783,27.8059925 C5.02826247,27.5566777 5.09750625,27.3059441 5.24522858,27.1210724 C5.39295091,26.9362008 5.60402503,26.836122 5.82181217,26.8476907 C6.28645323,26.8476907 6.50896685,27.1872622 6.50896685,27.7984456 L6.50896685,29.8056871 L7.19615426,29.8056871 Z M17.3666065,26.198773 L16.254022,26.198773 L16.254022,25.1046275 L15.5668346,25.1046275 L15.5668346,26.198773 L14.9319791,26.198773 L14.9319791,26.9156126 L15.5668346,26.9156126 L15.5668346,28.5606042 C15.5668346,29.398156 15.8482617,29.8962578 16.6532367,29.8962578 C16.9539693,29.8972907 17.2488579,29.800507 17.5040309,29.6170153 L17.307729,28.9454192 C17.1252013,29.0709743 16.918029,29.1410833 16.7056014,29.1491847 C16.3652641,29.1491847 16.254022,28.9076471 16.254022,28.5455482 L16.254022,26.9156126 L17.3666065,26.9156126 L17.3666065,26.198773 Z M23.1717511,26.1082105 C22.8336893,26.0967163 22.5172674,26.2993997 22.3471361,26.636416 L22.3471361,26.198773 L21.6730071,26.198773 L21.6730071,29.8056871 L22.3536489,29.8056871 L22.3536489,27.7833519 C22.3536489,27.1872622 22.5761658,26.8552376 23.021265,26.8552376 C23.1668345,26.8529396 23.3113718,26.8837124 23.4466294,26.9458001 L23.6560551,26.2062821 C23.5006146,26.1421521 23.3368422,26.1089882 23.1717511,26.1082105 L23.1717511,26.1082105 Z M14.3953399,26.4854786 C14.0100641,26.2213527 13.5670867,26.0904029 13.119116,26.1082105 C12.3271994,26.1082105 11.8167426,26.5458536 11.8167426,27.2626932 C11.8167426,27.8513114 12.1963206,28.2135236 12.8965664,28.3266889 L13.217267,28.3794793 C13.5902994,28.4397788 13.76703,28.5530196 13.76703,28.7567474 C13.76703,29.0359439 13.5182981,29.1944659 13.0536603,29.1944659 C12.6798933,29.2068607 12.3133724,29.0739545 12.0130444,28.8171224 L11.6923766,29.4283435 C12.0888307,29.7475907 12.5637239,29.9116117 13.0471147,29.8962495 C13.9502734,29.8962495 14.4738214,29.4057029 14.4738214,28.7190508 C14.4738214,28.085189 14.0615482,27.7531644 13.3809064,27.6399613 L13.0602386,27.5871332 C12.7656876,27.5418897 12.5301123,27.4740433 12.5301123,27.2325812 C12.5301123,26.9684407 12.7525637,26.8099564 13.1256616,26.8099564 C13.4682293,26.8159208 13.8038336,26.9223963 14.1008217,27.1193404 L14.3953399,26.4854786 Z M32.6288009,26.1082105 C32.2907391,26.0967163 31.9743171,26.2993997 31.8041858,26.636416 L31.8041858,26.198773 L31.1300896,26.198773 L31.1300896,29.8056871 L31.8106987,29.8056871 L31.8106987,27.7833519 C31.8106987,27.1872622 32.0332483,26.8552376 32.4782526,26.8552376 C32.6238546,26.8529305 32.7684256,26.8837033 32.9037151,26.9458001 L33.1131376,26.2062821 C32.9576858,26.1421519 32.7939026,26.108988 32.6288009,26.1082105 L32.6288009,26.1082105 Z M23.8589025,28.0021357 C23.8406195,28.5159764 24.0114929,29.0148033 24.3293719,29.3755666 C24.6472508,29.73633 25.0825393,29.9254408 25.5278611,29.8962495 C25.9364963,29.9199159 26.3380275,29.7664682 26.6535039,29.4660778 L26.3262906,28.8322161 C26.0909705,29.039036 25.8040687,29.1528286 25.5081949,29.1566938 C24.9787362,29.1196436 24.5658,28.613767 24.5658,28.0021923 C24.5658,27.3906176 24.9787362,26.884741 25.5081949,26.8476907 C25.8040747,26.851552 26.0909808,26.9653596 26.3262906,27.1722062 L26.6535039,26.5383067 C26.3380049,26.2379708 25.9364841,26.084554 25.5278611,26.1082105 C25.0825654,26.0790079 24.6472965,26.2680886 24.3294201,26.6288131 C24.0115436,26.9895376 23.8406536,27.4883227 23.8589025,28.0021357 Z M30.233447,28.0021357 L30.233447,26.198773 L29.5528019,26.198773 L29.5528019,26.636416 C29.3170589,26.2861482 28.9487341,26.089284 28.5645506,26.1082105 C27.6885705,26.157732 27.0003964,26.9910355 27.0003964,28.00223 C27.0003964,29.0134245 27.6885705,29.8467281 28.5645506,29.8962495 C28.9487443,29.9151499 29.3170682,29.7182581 29.5528019,29.3679685 L29.5528019,29.8056871 L30.233447,29.8056871 L30.233447,28.0021357 Z M27.7006359,28.0021357 C27.7300963,27.4085237 28.1659924,26.9511444 28.6813363,26.9731016 C29.1966803,26.9950588 29.6021086,27.4882842 29.5934888,28.0827842 C29.584869,28.6772841 29.1653684,29.1546094 28.6496759,29.1566938 C28.387654,29.1607819 28.1360837,29.0383725 27.9558262,28.8190795 C27.7755687,28.5997866 27.6830439,28.3035857 27.7006359,28.0021357 L27.7006359,28.0021357 Z M19.4871116,26.1082105 C18.605032,26.1617509 17.9172736,27.0093193 17.929591,28.0276424 C17.9419083,29.0459654 18.6498991,29.871091 19.5329307,29.8962495 C19.9998711,29.915145 20.4564985,29.7351481 20.8156707,29.3906091 L20.4818757,28.8096132 C20.2234266,29.0484278 19.903342,29.1811717 19.5721714,29.1868813 C19.1046123,29.2322303 18.6902926,28.8413641 18.6362848,28.3039728 L20.9596734,28.3039728 C20.9662189,28.2059389 20.9727285,28.1078296 20.9727285,28.0021357 C20.9662189,26.8778782 20.364088,26.1082105 19.4871116,26.1082105 L19.4871116,26.1082105 Z M19.4739877,26.8099564 C19.902037,26.800354 20.2561699,27.1917854 20.2659044,27.6852803 L18.6428304,27.6852803 C18.6676853,27.1816482 19.0367164,26.7930073 19.4739877,26.8099564 L19.4739877,26.8099564 Z M36.5490746,28.0021357 L36.5490746,24.75 L35.8684001,24.75 L35.8684001,26.636416 C35.6326661,26.2861562 35.2643544,26.0892926 34.8801816,26.1082105 C34.0041757,26.1576923 33.3159637,26.9910078 33.3159637,28.00223 C33.3159637,29.0134523 34.0041757,29.8467677 34.8801816,29.8962495 C35.2643646,29.9151413 35.6326753,29.71825 35.8684001,29.3679685 L35.8684001,29.8056871 L36.5490746,29.8056871 L36.5490746,28.0021357 Z M37.683685,29.282953 C37.7259554,29.2826291 37.7678426,29.2922059 37.8068073,29.3111028 C37.8442743,29.3291202 37.878419,29.3552075 37.9074128,29.3879677 C37.93618,29.4206489 37.9591956,29.4594346 37.9751923,29.5021896 C38.0082692,29.5909811 38.0082692,29.6915381 37.9751923,29.7803296 C37.9590998,29.82289 37.936093,29.8615074 37.9074128,29.8940987 C37.8783404,29.9268519 37.8442209,29.9530607 37.8068073,29.9713786 C37.7679116,29.9905823 37.7259958,30.0003198 37.683685,29.9999813 C37.5563814,30.0014621 37.4406731,29.9149458 37.3899195,29.7803296 C37.356934,29.6915164 37.356934,29.5910028 37.3899195,29.5021896 C37.4058711,29.4594895 37.4287802,29.4207147 37.4574044,29.3879677 C37.4863647,29.3549638 37.5206705,29.3288468 37.5583699,29.3111028 C37.5980874,29.2921474 37.6407005,29.2825751 37.683685,29.282953 L37.683685,29.282953 Z M37.683685,29.9208901 C37.7159365,29.9211827 37.7478852,29.9137024 37.7774831,29.8989287 C37.8058975,29.8846921 37.8317333,29.8644152 37.8536409,29.8391575 C37.9476945,29.7296412 37.9476945,29.5532176 37.8536409,29.4437014 C37.8317744,29.4185202 37.8059213,29.3984091 37.7774831,29.3844584 C37.7478319,29.3699268 37.7159025,29.3625923 37.683685,29.3629121 C37.6508784,29.3626269 37.6183573,29.3699544 37.5880574,29.3844584 C37.559165,29.3981837 37.532889,29.4183115 37.5107181,29.4437014 C37.4166182,29.5531957 37.4166182,29.7296631 37.5107181,29.8391575 C37.5329285,29.864624 37.559187,29.8849177 37.5880574,29.8989287 C37.6183052,29.9136747 37.6508451,29.9211477 37.683685,29.9208901 L37.683685,29.9208901 Z M37.7019799,29.473587 C37.7325916,29.471292 37.7629358,29.48141 37.7877597,29.5021896 C37.8078126,29.5212368 37.8189487,29.5500317 37.8178366,29.5799601 C37.8185369,29.6055279 37.809822,29.6302437 37.793847,29.6479952 C37.774897,29.6673987 37.7508955,29.6789988 37.7256094,29.680975 L37.8201275,29.8066304 L37.746228,29.8066304 L37.6585827,29.6818429 L37.6303713,29.6818429 L37.6303713,29.8066304 L37.5686465,29.8066304 L37.5686465,29.473587 L37.7019799,29.473587 Z M37.6303713,29.5360373 L37.6303713,29.6247886 L37.7012599,29.6247886 C37.7148787,29.6255629 37.7283958,29.6217191 37.7401406,29.6137324 C37.7498478,29.6062651 37.7553524,29.5933847 37.7545736,29.5799601 C37.7552177,29.5667733 37.7497172,29.5541902 37.7401406,29.5469426 C37.7283694,29.5390442 37.7148625,29.5352558 37.7012599,29.5360373 L37.6303713,29.5360373 Z M34.0162963,28.0021357 C34.0457815,27.4085549 34.4816757,26.9512238 34.9969931,26.9732091 C35.5123104,26.9951944 35.9176979,27.4884176 35.9090541,28.0828875 C35.9004104,28.6773575 35.4809116,29.1546365 34.9652446,29.1566938 C34.7032353,29.1607648 34.4516828,29.0383462 34.2714432,28.8190538 C34.0912035,28.5997614 33.9986946,28.3035704 34.0162963,28.0021357 L34.0162963,28.0021357 Z M11.0313715,28.0021357 L11.0313715,26.198773 L10.3506969,26.198773 L10.3506969,26.636416 C10.114954,26.2861482 9.74662921,26.089284 9.36244572,26.1082105 C8.48646561,26.157732 7.79829144,26.9910355 7.79829144,28.00223 C7.79829144,29.0134245 8.48646561,29.8467281 9.36244572,29.8962495 C9.74663939,29.9151499 10.1149633,29.7182581 10.3506969,29.3679685 L10.3506969,29.8056871 L11.0313715,29.8056871 L11.0313715,28.0021357 Z M8.49859318,28.0021357 C8.52807837,27.4085544 8.96397326,26.9512231 9.47929102,26.9732091 C9.99460878,26.9951951 10.3999959,27.4884196 10.391351,28.08289 C10.382706,28.6773605 9.9632056,29.1546385 9.44753822,29.1566938 C9.18552942,29.1607637 8.93397782,29.0383447 8.7537389,28.8190524 C8.57349999,28.5997601 8.48099152,28.3035697 8.49859318,28.0021357 L8.49859318,28.0021357 Z" id="Shape" fill="#FFFFFF"></path>
                        <g filter="url(#filter-10)">
                            <rect id="Rectangle" fill="#FF5F00" x="13.8242837" y="2.56574757" width="10.2469844" height="18.8685049"></rect>
                            <path d="M14.4749509,12 C14.4716716,8.31799369 16.1210949,4.83899527 18.9478116,2.56574757 C14.1464138,-1.30139317 7.2508901,-0.738545261 3.10752433,3.85871284 C-1.03584144,8.45597094 -1.03584144,15.5440291 3.10752433,20.1412872 C7.2508901,24.7385453 14.1464138,25.3013932 18.9478116,21.4342524 C16.1211139,19.160989 14.4716955,15.6820007 14.4749509,12 Z" id="Path" fill="#EB001B"></path>
                            <path d="M37.8950355,12 C37.8950355,16.5941461 35.3354197,20.7851212 31.3028089,22.7930496 C27.270198,24.800978 22.4727137,24.2733528 18.9478116,21.4342524 C21.7718868,19.1588263 23.4206332,15.681225 23.4206332,12 C23.4206332,8.31877498 21.7718868,4.84117373 18.9478116,2.56574757 C22.4727137,-0.273352786 27.270198,-0.800978018 31.3028089,1.20695037 C35.3354197,3.21487877 37.8950355,7.40585394 37.8950355,12 L37.8950355,12 Z" id="Path" fill="#F79E1B"></path>
                            <path d="M36.8898042,20.4509774 L36.8898042,19.2224756 L37.114342,19.2224756 L37.114342,18.9721958 L36.5424986,18.9721958 L36.5424986,19.2224756 L36.7671325,19.2224756 L36.7671325,20.4509774 L36.8898042,20.4509774 Z M38,20.4509774 L38,18.9697576 L37.8247135,18.9697576 L37.6230956,19.9885799 L37.4214297,18.9697576 L37.2460471,18.9697576 L37.2460471,20.4509774 L37.3698239,20.4509774 L37.3698239,19.3336757 L37.5589008,20.2969509 L37.6872424,20.2969509 L37.8763192,19.3312376 L37.8763192,20.4509774 L38,20.4509774 Z" id="Shape" fill="#F79E1B"></path>
                        </g>
                    </g>
                </g>
            </g>
        </g>
    </g>
</svg>